<svg xmlns="http://www.w3.org/2000/svg" viewBox="0 0 64 64">
<circle cx="32" cy="32" r="31" fill="#16120e"/>
<path transform="translate(11.01 38.52) scale(0.55)" fill="#f6f3ed" d="M13.39 4.56L13.39 4.56Q11.42 4.56 8.50 2.21L8.50 2.21Q6.43 1.87 4.97 1.32Q3.50 0.77 2.54 0L2.54 0Q1.20-1.15 0.19-3.07Q-0.82-4.99-0.82-6.77L-0.82-6.77Q-0.82-8.11-0.19-9.17L-0.19-9.17Q1.25-11.71 3.46-11.71L3.46-11.71Q5.14-11.71 5.42-8.88L5.42-8.88Q5.76-6.24 5.98-4.68Q6.19-3.12 6.34-2.64L6.34-2.64Q7.06-0.29 8.78 1.34L8.78 1.34Q10.80 1.78 13.15 1.78L13.15 1.78Q18.34 1.78 23.09-0.19L23.09-0.19Q25.10-1.06 27.02-2.45Q28.94-3.84 30.19-5.52Q31.44-7.20 31.44-8.78L31.44-8.78Q31.44-11.04 27.46-12.29L27.46-12.29L19.01-14.21Q16.42-14.78 14.86-16.25Q13.30-17.71 13.30-19.58L13.30-19.58Q13.30-22.46 16.90-25.34L16.90-25.34Q18.72-26.83 21.17-27.86Q23.62-28.90 26.33-29.45Q29.04-30 31.54-30L31.54-30Q35.09-30 37.61-28.90Q40.13-27.79 40.75-25.68L40.75-25.68Q40.90-25.20 40.90-24.62L40.90-24.62Q40.90-21.70 37.97-20.54L37.97-20.54Q36.19-19.82 34.94-19.82L34.94-19.82Q34.18-19.82 33.74-20.11L33.74-20.11Q33.65-20.21 33.65-20.35L33.65-20.35Q33.65-20.69 34.99-20.74L34.99-20.74Q35.81-20.78 36.34-20.88Q36.86-20.98 37.10-21.07L37.10-21.07Q38.93-22.03 38.93-23.90L38.93-23.90Q38.93-24.86 38.40-25.92L38.40-25.92Q36.91-28.66 30.96-28.66L30.96-28.66Q28.80-28.66 26.50-28.20Q24.19-27.74 22.13-26.86Q20.06-25.97 18.62-24.62L18.62-24.62Q16.13-22.32 16.13-20.50L16.13-20.50Q16.13-19.10 17.50-18.02Q18.86-16.94 21.65-16.42L21.65-16.42L27.31-15.36Q30.58-14.74 32.59-13.51Q34.61-12.29 34.61-9.79L34.61-9.79Q34.61-7.58 33.50-5.66Q32.40-3.74 30.55-2.23Q28.70-0.72 26.35 0.29L26.35 0.29Q21.02 2.64 13.78 2.64L13.78 2.64Q12.86 2.64 11.95 2.59Q11.04 2.54 10.18 2.45L10.18 2.45Q10.85 2.83 11.88 3.22Q12.91 3.60 14.26 3.94L14.26 3.94Q14.40 3.98 14.40 4.13L14.40 4.13Q14.40 4.56 13.39 4.56ZM7.06 0.86L7.06 0.86Q5.76-0.58 5.04-2.11L5.04-2.11Q3.98-4.51 3.46-8.02L3.46-8.02Q3.07-10.56 2.64-10.56L2.64-10.56Q2.26-10.56 1.61-9.98Q0.96-9.41 0.96-7.54L0.96-7.54Q0.96-3.89 3.55-1.20L3.55-1.20Q4.85 0.14 7.06 0.86ZM62.06 5.23L62.06 5.23Q59.38 5.23 56.54 4.44Q53.71 3.65 51.19 2.11Q48.67 0.58 46.85-1.54L46.85-1.54Q43.01 2.30 39.55 2.30L39.55 2.30Q37.78 2.30 36.91 1.27Q36.05 0.24 36.05-1.39L36.05-1.39Q36.05-4.42 38.35-8.50L38.35-8.50Q40.51-12.34 41.81-12.53L41.81-12.53Q42.77-12.53 43.78-10.56L43.78-10.56L46.80-4.70Q49.34-8.11 52.13-12.05L52.13-12.05Q48.19-13.82 48.19-17.18L48.19-17.18Q48.19-18.62 48.89-19.85Q49.58-21.07 50.69-21.84Q51.79-22.61 52.94-22.61L52.94-22.61Q54.53-22.61 55.25-21.12L55.25-21.12Q55.34-20.98 55.27-20.83Q55.20-20.69 55.10-20.74L55.10-20.74Q54.77-21.12 54.14-21.41Q53.52-21.70 52.99-21.70L52.99-21.70Q51.98-21.70 51.14-20.90Q50.30-20.11 49.85-19.06Q49.39-18 49.49-17.18L49.49-17.18Q49.49-14.74 52.94-12.91L52.94-12.91Q53.76-14.11 54.72-15.53Q55.68-16.94 56.78-18.58L56.78-18.58Q66.34-32.59 72.67-32.59L72.67-32.59Q77.14-32.59 77.14-28.42L77.14-28.42Q77.14-24.62 73.44-19.49L73.44-19.49Q71.62-16.94 68.83-14.93Q66.05-12.91 62.95-11.74Q59.86-10.56 56.98-10.56L56.98-10.56Q56.30-10.56 55.66-10.63Q55.01-10.70 54.48-10.90L54.48-10.90Q53.23-9.26 51.60-7.25Q49.97-5.23 48-2.78L48-2.78Q48.86-1.58 50.47-0.38Q52.08 0.82 54.10 1.75Q56.11 2.69 58.08 3.26Q60.05 3.84 61.63 3.84L61.63 3.84Q63.46 3.84 64.99 3.43Q66.53 3.02 67.49 2.14Q68.45 1.25 68.45-0.19L68.45-0.19Q68.45-0.38 68.45-0.58Q68.45-0.77 68.40-0.96L68.40-0.96Q68.40-1.06 68.38-1.10Q68.35-1.15 68.35-1.20L68.35-1.20Q68.35-1.68 68.64-1.68L68.64-1.68Q69.12-1.68 69.41-0.94Q69.70-0.19 69.70 0.24L69.70 0.24Q69.70 1.73 68.54 2.86Q67.39 3.98 65.64 4.61Q63.89 5.23 62.06 5.23ZM56.64-11.81L56.64-11.81Q59.09-11.81 61.87-12.94Q64.66-14.06 67.13-15.91Q69.60-17.76 71.14-19.92L71.14-19.92Q75.50-26.02 75.50-29.18L75.50-29.18Q75.50-30.53 74.74-31.15Q73.97-31.78 72.86-31.78L72.86-31.78Q70.46-31.78 66.91-27.74L66.91-27.74Q65.81-26.45 64.01-24.02Q62.21-21.60 59.76-18.05L59.76-18.05Q58.80-16.66 57.65-15.12Q56.50-13.58 55.25-11.95L55.25-11.95Q55.92-11.81 56.64-11.81ZM39.65 1.01L39.65 1.01Q40.56 1.01 41.69 0.36Q42.82-0.29 43.87-1.25Q44.93-2.21 45.60-3.12L45.60-3.12Q44.93-4.08 44.16-5.42Q43.39-6.77 42.48-8.54L42.48-8.54Q41.38-10.85 40.80-10.61L40.80-10.61Q39.94-10.46 38.93-7.54L38.93-7.54Q37.92-4.61 37.92-2.06L37.92-2.06Q37.92 1.01 39.65 1.01Z"/>
<circle cx="51" cy="46" r="2.4" fill="#e2841a"/>
</svg>
