<svg xmlns="http://www.w3.org/2000/svg" viewBox="0 0 340 660" fill="none">
  <g stroke="#1c1712" stroke-width="1.4" stroke-linecap="round" opacity="0.55">
    <!-- stem -->
    <path d="M170 645 C164 540 160 430 172 330 C179 288 184 262 185 245"/>
    <!-- spathe: left edge up and over the crest towards the tip -->
    <path d="M185 245 C140 214 118 164 130 118 C138 88 160 66 190 62 C216 59 238 74 248 94 C252 100 254 106 252 112" stroke-width="1.3"/>
    <!-- curled point of the spathe -->
    <path d="M252 112 C257 117 256 124 250 123" stroke-width="1"/>
    <!-- front edge of the open funnel back down to the base -->
    <path d="M252 112 C230 158 208 202 185 245" stroke-width="1.3"/>
    <!-- rim of the opening, meeting the tip -->
    <path d="M137 122 C166 142 216 136 250 112" stroke-width="1.1"/>
    <!-- interior vein following the wrap -->
    <path d="M178 232 C160 200 152 166 156 136" stroke-width="1"/>
    <!-- spadix rising out of the mouth -->
    <path d="M175 195 C183 166 191 140 199 118" stroke-width="1.2"/>
    <!-- leaf -->
    <path d="M168 520 C136 496 118 470 116 440 C142 456 162 484 172 512"/>
    <path d="M124 446 C142 468 158 492 169 514" stroke-width="1"/>
  </g>
  <g fill="#1c1712" opacity="0.55">
    <circle cx="200" cy="114" r="2.4"/>
    <circle cx="195" cy="128" r="1.3"/>
    <circle cx="190" cy="142" r="1.1"/>
    <circle cx="120" cy="200" r="1.6"/>
    <circle cx="262" cy="150" r="1.5"/>
    <circle cx="150" cy="80" r="1.5"/>
  </g>
  <g fill="#e2841a" opacity="0.7">
    <circle cx="262" cy="132" r="2.6"/>
    <circle cx="132" cy="300" r="2"/>
  </g>
</svg>
