<svg xmlns="http://www.w3.org/2000/svg" viewBox="0 0 340 660" fill="none">
  <g stroke="#1c1712" stroke-width="1.4" stroke-linecap="round" opacity="0.55">
    <!-- stem -->
    <path d="M170 645 C163 540 158 430 170 330 C176 288 183 258 181 232"/>
    <!-- spathe -->
    <path d="M181 232 C146 206 130 156 148 112 C160 84 190 70 214 86 C238 104 240 148 224 188 C217 206 202 222 181 232" stroke-width="1.3"/>
    <path d="M214 86 C224 78 236 82 232 94 C229 102 220 100 216 94" stroke-width="1.1"/>
    <path d="M181 230 C196 200 204 164 199 128" stroke-width="1.1"/>
    <!-- spadix -->
    <path d="M187 210 C193 184 199 162 207 142" stroke-width="1.1"/>
    <!-- leaf -->
    <path d="M168 520 C136 496 118 470 116 440 C142 456 162 484 172 512"/>
    <path d="M124 446 C142 468 158 492 169 514" stroke-width="1"/>
  </g>
  <g fill="#1c1712" opacity="0.55">
    <circle cx="208" cy="139" r="2.2"/>
    <circle cx="120" cy="200" r="1.6"/>
    <circle cx="236" cy="150" r="1.5"/>
    <circle cx="150" cy="80" r="1.5"/>
  </g>
  <g fill="#e2841a" opacity="0.7">
    <circle cx="250" cy="120" r="2.6"/>
    <circle cx="132" cy="300" r="2"/>
  </g>
</svg>
